<svg xmlns="http://www.w3.org/2000/svg" viewBox="0 0 29 28" width="29" height="28"><path d="M28.31,3.73,24.9.33a1.06,1.06,0,0,0-1.54,0L8.54,15.12a1.82,1.82,0,0,0-.22.29l-3,6.4a1.14,1.14,0,0,0,.22,1.25,1,1,0,0,0,.77.33,1.15,1.15,0,0,0,.47-.11l6.41-3a.57.57,0,0,0,.29-.22L28.31,5.23a1.07,1.07,0,0,0,.32-.76,1,1,0,0,0-.32-.74ZM12.05,18.41,8.58,20.06l1.64-3.48L20.8,6l1.87,1.87ZM24.17,6.3,22.3,4.43l1.8-1.79L26,4.5Z" fill="#ff5400"/><path d="M25.23,12.59a1.08,1.08,0,0,0-1.1,1.1V25.8H2.46V4h13.4A1.08,1.08,0,0,0,17,2.93a1.08,1.08,0,0,0-1.1-1.1H2.46A2.2,2.2,0,0,0,.27,4V25.8A2.2,2.2,0,0,0,2.46,28H24.13a2.21,2.21,0,0,0,2.2-2.2V13.69a1.12,1.12,0,0,0-1.1-1.1Z" fill="#ff5400"/></svg>